<svg xmlns="http://www.w3.org/2000/svg" viewBox="0 0 403.44 305.56"><defs><style>.cls-1{fill:#26b6d4;}.cls-2{fill:#e8a37d;}.cls-3{fill:#f3c420;}.cls-4{fill:#8d6207;}.cls-5{fill:#aeb4bc;}.cls-6{fill:#12aab5;stroke:#12aab5;stroke-miterlimit:10;stroke-width:10px;}</style></defs><g id="Layer_2" data-name="Layer 2"><g id="Layer_1-2" data-name="Layer 1"><path class="cls-1" d="M124.44,96.13A55,55,0,1,0,59.56,185Z"/><path class="cls-2" d="M124.44,96.13A55,55,0,1,1,59.56,185Z"/><circle class="cls-1" cx="37" cy="100.13" r="26.5"/><path class="cls-3" d="M34.73,205.54h104.6A34.68,34.68,0,0,1,174,240.22v57.32a0,0,0,0,1,0,0H0a0,0,0,0,1,0,0V240.27A34.73,34.73,0,0,1,34.73,205.54Z"/><path class="cls-1" d="M279,27.5a55,55,0,1,1,64.88,88.83Z"/><path class="cls-4" d="M279,27.5a55,55,0,0,0,64.88,88.83Z"/><circle class="cls-1" cx="366.45" cy="31.5" r="26.5"/><path class="cls-5" d="M229.44,136.92h174a0,0,0,0,1,0,0v57.32a34.68,34.68,0,0,1-34.68,34.68H264.17a34.73,34.73,0,0,1-34.73-34.73V136.92A0,0,0,0,1,229.44,136.92Z" transform="translate(632.88 365.83) rotate(180)"/><line class="cls-6" x1="321.52" y1="300.56" x2="195.36" y2="300.56"/><line class="cls-6" x1="316.43" y1="300.56" x2="316.43" y2="242.52"/><line class="cls-6" x1="125.39" y1="5" x2="251.54" y2="5"/><line class="cls-6" x1="130.47" y1="5" x2="130.47" y2="63.04"/></g></g></svg>